HIERARCHY
ROOT Junyuan_V1:Solving:Hips
{
	OFFSET 0.000000 0.000000 0.000000
	CHANNELS 6 Xposition Yposition Zposition Xrotation Yrotation Zrotation
	JOINT Junyuan_V1:Solving:Spine
	{
		OFFSET 0.000000 -8.943189 2.778120
		CHANNELS 6 Xposition Yposition Zposition Xrotation Yrotation Zrotation
		JOINT Junyuan_V1:Solving:Spine1
		{
			OFFSET 0.000000 -9.944814 1.753542
			CHANNELS 6 Xposition Yposition Zposition Xrotation Yrotation Zrotation
			JOINT Junyuan_V1:Solving:Spine2
			{
				OFFSET 0.000000 -10.059801 0.880121
				CHANNELS 6 Xposition Yposition Zposition Xrotation Yrotation Zrotation
				JOINT Junyuan_V1:Solving:Spine3
				{
					OFFSET 0.000000 -10.098228 0.000000
					CHANNELS 6 Xposition Yposition Zposition Xrotation Yrotation Zrotation
					JOINT Junyuan_V1:Solving:Neck
					{
						OFFSET 0.000000 -12.983437 -1.298342
						CHANNELS 6 Xposition Yposition Zposition Xrotation Yrotation Zrotation
						JOINT Junyuan_V1:Solving:Neck1
						{
							OFFSET 0.000000 -8.085114 -0.707354
							CHANNELS 6 Xposition Yposition Zposition Xrotation Yrotation Zrotation
							JOINT Junyuan_V1:Solving:Head
							{
								OFFSET 0.000000 -7.992695 -1.409326
								CHANNELS 6 Xposition Yposition Zposition Xrotation Yrotation Zrotation
								JOINT Junyuan_V1:Solving:HeadEnd
								{
									OFFSET 0.000000 -9.728081 0.000002
									CHANNELS 6 Xposition Yposition Zposition Xrotation Yrotation Zrotation
									End Site
									{
										OFFSET 0.000000 -9.728081 0.000002
									}
								}
							}
						}
					}
					JOINT Junyuan_V1:Solving:RightShoulder
					{
						OFFSET 0.000000 -9.273884 -6.154356
						CHANNELS 6 Xposition Yposition Zposition Xrotation Yrotation Zrotation
						JOINT Junyuan_V1:Solving:RightArm
						{
							OFFSET -19.110832 -0.000008 0.000000
							CHANNELS 6 Xposition Yposition Zposition Xrotation Yrotation Zrotation
							JOINT Junyuan_V1:Solving:RightForeArm
							{
								OFFSET -27.916382 -0.000008 0.000000
								CHANNELS 6 Xposition Yposition Zposition Xrotation Yrotation Zrotation
								JOINT Junyuan_V1:Solving:RightHand
								{
									OFFSET -21.757072 -0.000008 0.000000
									CHANNELS 6 Xposition Yposition Zposition Xrotation Yrotation Zrotation
									JOINT Junyuan_V1:Solving:RightHandThumb1
									{
										OFFSET -3.656471 2.766285 -2.718907
										CHANNELS 6 Xposition Yposition Zposition Xrotation Yrotation Zrotation
										End Site
										{
											OFFSET -5.307442 0.000000 -5.356520
										}
									}
									JOINT Junyuan_V1:Solving:RightHandMiddle1
									{
										OFFSET -9.750572 -0.000004 0.062504
										CHANNELS 6 Xposition Yposition Zposition Xrotation Yrotation Zrotation
										End Site
										{
											OFFSET -7.540642 -0.000004 0.000000
										}
									}
								}
							}
						}
					}
					JOINT Junyuan_V1:Solving:LeftShoulder
					{
						OFFSET 0.000000 -9.273884 -6.154356
						CHANNELS 6 Xposition Yposition Zposition Xrotation Yrotation Zrotation
						JOINT Junyuan_V1:Solving:LeftArm
						{
							OFFSET 19.110832 -0.000008 0.000000
							CHANNELS 6 Xposition Yposition Zposition Xrotation Yrotation Zrotation
							JOINT Junyuan_V1:Solving:LeftForeArm
							{
								OFFSET 27.916382 -0.000008 0.000000
								CHANNELS 6 Xposition Yposition Zposition Xrotation Yrotation Zrotation
								JOINT Junyuan_V1:Solving:LeftHand
								{
									OFFSET 21.757072 -0.000008 0.000000
									CHANNELS 6 Xposition Yposition Zposition Xrotation Yrotation Zrotation
									JOINT Junyuan_V1:Solving:LeftHandThumb1
									{
										OFFSET 3.656471 2.766285 -2.718907
										CHANNELS 6 Xposition Yposition Zposition Xrotation Yrotation Zrotation
										End Site
										{
											OFFSET 5.307442 0.000000 -5.356520
										}
									}
									JOINT Junyuan_V1:Solving:LeftHandMiddle1
									{
										OFFSET 9.750572 -0.000004 0.062504
										CHANNELS 6 Xposition Yposition Zposition Xrotation Yrotation Zrotation
										End Site
										{
											OFFSET 7.540642 -0.000004 0.000000
										}
									}
								}
							}
						}
					}
				}
			}
		}
	}
	JOINT Junyuan_V1:Solving:RightUpLeg
	{
		OFFSET -8.521003 0.000000 0.000000
		CHANNELS 6 Xposition Yposition Zposition Xrotation Yrotation Zrotation
		JOINT Junyuan_V1:Solving:RightLeg
		{
			OFFSET 0.000000 41.622898 -0.000006
			CHANNELS 6 Xposition Yposition Zposition Xrotation Yrotation Zrotation
			JOINT Junyuan_V1:Solving:RightFoot
			{
				OFFSET 0.000000 37.258389 -0.000006
				CHANNELS 6 Xposition Yposition Zposition Xrotation Yrotation Zrotation
				JOINT Junyuan_V1:Solving:RightForeFoot
				{
					OFFSET 0.000000 3.234154 -0.000000
					CHANNELS 6 Xposition Yposition Zposition Xrotation Yrotation Zrotation
					JOINT Junyuan_V1:Solving:RightToeBase
					{
						OFFSET 0.000000 0.000000 -12.665958
						CHANNELS 6 Xposition Yposition Zposition Xrotation Yrotation Zrotation
						JOINT Junyuan_V1:Solving:RightToeBaseEnd
						{
							OFFSET 0.000000 0.000000 -2.833065
							CHANNELS 6 Xposition Yposition Zposition Xrotation Yrotation Zrotation
							End Site
							{
								OFFSET 0.000000 -2.833061 0.000002
							}
						}
					}
				}
			}
		}
	}
	JOINT Junyuan_V1:Solving:LeftUpLeg
	{
		OFFSET 8.521003 0.000000 0.000000
		CHANNELS 6 Xposition Yposition Zposition Xrotation Yrotation Zrotation
		JOINT Junyuan_V1:Solving:LeftLeg
		{
			OFFSET 0.000000 41.622898 -0.000006
			CHANNELS 6 Xposition Yposition Zposition Xrotation Yrotation Zrotation
			JOINT Junyuan_V1:Solving:LeftFoot
			{
				OFFSET 0.000000 37.258389 -0.000006
				CHANNELS 6 Xposition Yposition Zposition Xrotation Yrotation Zrotation
				JOINT Junyuan_V1:Solving:LeftForeFoot
				{
					OFFSET 0.000000 3.234154 -0.000000
					CHANNELS 6 Xposition Yposition Zposition Xrotation Yrotation Zrotation
					JOINT Junyuan_V1:Solving:LeftToeBase
					{
						OFFSET 0.000000 0.000000 -12.665958
						CHANNELS 6 Xposition Yposition Zposition Xrotation Yrotation Zrotation
						JOINT Junyuan_V1:Solving:LeftToeBaseEnd
						{
							OFFSET 0.000000 0.000000 -4.326123
							CHANNELS 6 Xposition Yposition Zposition Xrotation Yrotation Zrotation
							End Site
							{
								OFFSET 0.000000 -4.326126 0.000000
							}
						}
					}
				}
			}
		}
	}
}
MOTION
Frames: 4
Frame Time: 0.041667
-11.306189 36.388554 -88.260574 88.947962 172.429369 -1.273405 0.000001 -8.943192 2.778126 11.849536 -0.456607 -1.329395 0.000003 -9.944826 1.753529 -0.752634 0.195094 -0.213061 -0.000000 -10.059784 0.880123 -5.066168 3.348855 -0.953287 0.000001 -10.098204 -0.000002 -3.424574 0.607004 -1.212458 -0.000000 -12.983423 -1.298339 3.843696 0.436948 4.242787 0.000002 -8.085092 -0.707352 -5.882630 -0.267556 -1.771448 0.000000 -7.992684 -1.409328 -4.510945 0.922533 -2.383810 -0.000001 -9.728050 -0.000002 -0.000000 -0.000000 -0.000001 -0.000000 -9.273914 -6.154345 -0.000009 21.048220 13.380245 -19.110825 -0.000011 0.000003 2.569388 -28.281228 -86.243105 -27.916382 -0.000010 0.000010 13.377213 -28.267028 6.425802 -21.757065 -0.000013 -0.000000 -0.401645 -1.175812 -18.861142 -3.656475 2.766294 -2.718903 0.000003 0.000005 -0.000004 -9.750569 0.000012 0.062503 0.000005 -0.000001 0.000003 0.000004 -9.273911 -6.154349 -0.000006 -15.279955 -13.295241 19.110825 -0.000043 0.000016 -6.745686 42.751954 93.386731 27.916382 0.000006 -0.000001 20.793430 28.747327 -10.349958 21.757061 -0.000018 0.000006 -0.625267 1.808022 19.080538 3.656491 2.766285 -2.718904 -0.000000 -0.000005 0.000005 9.750580 -0.000002 0.062501 -0.000000 0.000000 -0.000000 -8.521002 -0.000015 -0.000000 4.304070 8.399761 -1.584489 0.000000 41.622890 -0.000024 -1.097987 0.000000 -0.000000 0.000000 37.258385 -0.000006 4.260749 2.667432 7.845076 0.000000 3.234146 0.000004 -0.000001 -0.000000 -0.000000 0.000001 -0.000014 -12.665964 -3.688460 0.000001 0.000000 0.000000 -0.000008 -2.833067 -0.000001 -0.000000 0.000000 8.521003 0.000005 0.000008 -9.612958 1.773579 -9.130552 0.000006 41.622910 -0.000006 21.571655 -0.000000 0.000002 -0.000003 37.258396 -0.000011 5.293302 14.717987 15.997649 -0.000007 3.234154 0.000011 0.000001 -0.000000 -0.000001 0.000001 0.000007 -12.665954 0.096666 0.000001 -0.000002 -0.000001 -0.000009 -4.326128 -0.000005 -0.000001 -0.000000 
-11.323833 36.262093 -88.273956 89.033210 172.604536 -1.436854 0.000001 -8.943177 2.778112 11.917363 -0.464494 -1.204718 -0.000001 -9.944836 1.753556 -0.722677 0.189200 -0.209431 0.000002 -10.059798 0.880110 -5.047935 3.214924 -0.943253 -0.000002 -10.098231 -0.000002 -3.419125 0.582428 -1.192652 0.000001 -12.983461 -1.298328 3.885537 0.396534 4.285364 0.000001 -8.085126 -0.707352 -5.881541 -0.266834 -1.772114 -0.000001 -7.992630 -1.409333 -4.490516 0.909817 -2.356087 -0.000003 -9.728065 0.000006 0.000000 0.000000 0.000001 0.000000 -9.273922 -6.154344 -0.000010 20.976390 13.359708 -19.110813 -0.000006 0.000011 2.694943 -28.597857 -85.861215 -27.916393 -0.000006 0.000002 13.213493 -28.399732 6.372044 -21.757050 -0.000000 -0.000004 -0.347081 -0.999292 -19.154337 -3.656472 2.766271 -2.718898 0.000001 -0.000005 -0.000001 -9.750570 -0.000004 0.062514 0.000003 -0.000002 0.000002 0.000005 -9.273937 -6.154343 -0.000007 -15.297079 -13.257111 19.110825 0.000006 0.000005 -6.874858 43.086626 93.406990 27.916372 -0.000007 0.000020 21.242616 29.188410 -10.734581 21.757057 -0.000016 0.000004 -0.576345 1.684944 18.886482 3.656448 2.766283 -2.718913 -0.000000 -0.000002 -0.000000 9.750562 -0.000004 0.062503 -0.000002 0.000001 -0.000003 -8.521001 0.000010 -0.000007 4.432572 8.429456 -1.414349 0.000001 41.622929 -0.000015 -1.070251 0.000000 0.000000 0.000001 37.258392 -0.000011 4.165458 2.501608 7.769811 0.000002 3.234154 -0.000010 -0.000000 -0.000000 -0.000001 0.000001 -0.000013 -12.665959 -3.449649 -0.000000 -0.000000 -0.000000 -0.000008 -2.833061 -0.000000 -0.000000 0.000000 8.521005 0.000017 0.000002 -9.977207 1.773243 -8.980356 0.000001 41.622879 -0.000012 22.361578 -0.000000 0.000002 0.000003 37.258408 -0.000006 5.006644 14.630646 16.189075 0.000011 3.234146 -0.000004 0.000002 0.000001 -0.000000 -0.000005 -0.000009 -12.665956 0.523897 -0.000000 0.000001 0.000002 -0.000015 -4.326128 -0.000000 0.000000 0.000001 
-11.341428 36.137054 -88.277718 89.095522 172.775932 -1.569080 -0.000000 -8.943186 2.778110 11.973871 -0.479497 -1.104221 0.000001 -9.944803 1.753537 -0.703813 0.183101 -0.201113 -0.000000 -10.059780 0.880116 -5.040958 3.089198 -0.943098 0.000001 -10.098219 0.000002 -3.400628 0.556720 -1.159329 -0.000001 -12.983425 -1.298325 3.927725 0.359804 4.324386 -0.000001 -8.085093 -0.707356 -5.876547 -0.271142 -1.767514 0.000003 -7.992718 -1.409321 -4.487558 0.911204 -2.359082 0.000002 -9.728058 -0.000000 -0.000000 0.000000 0.000000 -0.000002 -9.273895 -6.154345 -0.000010 20.903869 13.379344 -19.110813 0.000013 0.000000 2.813678 -28.912464 -85.540647 -27.916376 0.000002 0.000002 13.238011 -28.536015 6.412024 -21.757065 -0.000003 0.000003 -0.332116 -0.945496 -19.355551 -3.656439 2.766281 -2.718909 0.000004 0.000010 -0.000006 -9.750587 -0.000004 0.062507 0.000000 0.000002 0.000001 0.000001 -9.273895 -6.154344 -0.000008 -15.327470 -13.251533 19.110821 -0.000032 0.000006 -7.040565 43.402413 93.463277 27.916403 -0.000000 0.000023 21.630504 29.575774 -11.074146 21.757067 -0.000009 0.000001 -0.539407 1.596672 18.669695 3.656487 2.766287 -2.718905 -0.000007 -0.000002 0.000001 9.750615 0.000005 0.062510 -0.000002 -0.000003 -0.000003 -8.521003 0.000018 0.000001 4.544783 8.433527 -1.276186 -0.000001 41.622894 0.000004 -1.042112 -0.000000 -0.000000 0.000001 37.258373 -0.000007 4.029446 2.334523 7.578412 0.000002 3.234146 -0.000003 -0.000001 0.000000 -0.000001 -0.000001 0.000001 -12.665956 -3.062627 -0.000000 0.000001 0.000001 -0.000008 -2.833077 -0.000001 0.000000 -0.000000 8.521004 -0.000007 -0.000005 -10.345858 1.745707 -8.859549 0.000005 41.622902 -0.000008 23.066088 -0.000001 0.000002 0.000002 37.258404 -0.000003 4.744453 14.490745 16.524500 0.000004 3.234146 -0.000006 0.000000 -0.000000 0.000001 0.000003 0.000008 -12.665962 0.462818 -0.000001 -0.000003 0.000000 -0.000009 -4.326127 -0.000005 0.000001 0.000001 
-11.366825 36.010792 -88.291161 89.160470 172.946141 -1.763655 -0.000002 -8.943199 2.778126 12.033099 -0.482500 -0.928437 0.000001 -9.944804 1.753536 -0.673486 0.177104 -0.198076 0.000001 -10.059784 0.880113 -5.034564 2.972035 -0.946534 0.000001 -10.098221 0.000013 -3.396345 0.529149 -1.131814 0.000005 -12.983444 -1.298351 3.972082 0.330202 4.393239 -0.000002 -8.085116 -0.707364 -5.861510 -0.266649 -1.788516 0.000002 -7.992653 -1.409322 -4.481303 0.913120 -2.364866 -0.000000 -9.728096 0.000003 0.000000 0.000000 0.000000 0.000002 -9.273922 -6.154363 -0.000011 20.828209 13.368728 -19.110817 -0.000004 0.000005 2.936826 -29.236259 -85.212204 -27.916372 -0.000003 0.000001 13.429129 -28.623979 6.525441 -21.757072 -0.000005 0.000002 -0.364974 -1.032158 -19.474772 -3.656446 2.766284 -2.718904 0.000002 -0.000000 -0.000006 -9.750572 -0.000002 0.062499 0.000004 -0.000004 0.000000 0.000008 -9.273907 -6.154365 -0.000008 -15.366116 -13.211911 19.110828 -0.000015 0.000017 -7.170997 43.692652 93.468345 27.916380 -0.000004 0.000015 22.006306 29.904587 -11.392215 21.757084 -0.000008 0.000007 -0.521020 1.563826 18.429162 3.656491 2.766278 -2.718913 0.000002 0.000000 0.000005 9.750581 0.000002 0.062497 0.000002 0.000002 0.000001 -8.521004 -0.000003 0.000010 4.646608 8.404368 -1.066258 0.000001 41.622906 0.000000 -1.009016 0.000000 -0.000000 0.000002 37.258389 -0.000013 3.901953 2.237351 7.453271 -0.000000 3.234146 0.000003 -0.000001 0.000000 -0.000000 0.000000 0.000007 -12.665957 -2.778818 0.000000 0.000000 0.000001 -0.000008 -2.833064 -0.000000 0.000000 -0.000001 8.521002 0.000017 0.000016 -10.807229 1.642988 -8.685058 0.000007 41.622902 -0.000008 23.806199 -0.000000 0.000001 -0.000002 37.258396 -0.000004 4.432470 14.636889 16.408583 0.000004 3.234146 -0.000002 -0.000003 0.000000 -0.000001 -0.000004 0.000002 -12.665965 0.751190 -0.000000 -0.000001 -0.000002 -0.000008 -4.326123 -0.000002 0.000001 -0.000000 
